<mxfile host="localhost" modified="2020-05-16T04:15:50.023Z" agent="5.0 (Windows NT 10.0; Win64; x64) AppleWebKit/537.36 (KHTML, like Gecko) Code/1.45.1 Chrome/78.0.3904.130 Electron/7.2.4 Safari/537.36" etag="F2bvXTSAlYlUuboPCKzA" version="13.0.9">
    <diagram id="C5RBs43oDa-KdzZeNtuy" name="Page-1">
        <mxGraphModel dx="380" dy="480" grid="1" gridSize="10" guides="1" tooltips="1" connect="1" arrows="1" fold="1" page="1" pageScale="1" pageWidth="827" pageHeight="1169" math="0" shadow="0">
            <root>
                <mxCell id="WIyWlLk6GJQsqaUBKTNV-0"/>
                <mxCell id="WIyWlLk6GJQsqaUBKTNV-1" parent="WIyWlLk6GJQsqaUBKTNV-0"/>
                <mxCell id="nJjt4VkgYKJp9FcxVLal-9" value="" style="rounded=0;html=1;jettySize=auto;orthogonalLoop=1;fontSize=11;endArrow=block;endFill=0;endSize=8;strokeWidth=1;shadow=0;labelBackgroundColor=none;edgeStyle=orthogonalEdgeStyle;" parent="WIyWlLk6GJQsqaUBKTNV-1" source="nJjt4VkgYKJp9FcxVLal-16" target="nJjt4VkgYKJp9FcxVLal-13" edge="1">
                    <mxGeometry relative="1" as="geometry"/>
                </mxCell>
                <mxCell id="nJjt4VkgYKJp9FcxVLal-10" value="Start" style="rounded=1;whiteSpace=wrap;html=1;fontSize=12;glass=0;strokeWidth=1;shadow=0;" parent="WIyWlLk6GJQsqaUBKTNV-1" vertex="1">
                    <mxGeometry x="110" y="20" width="120" height="40" as="geometry"/>
                </mxCell>
                <mxCell id="nJjt4VkgYKJp9FcxVLal-21" value="No" style="edgeStyle=none;rounded=0;orthogonalLoop=1;jettySize=auto;html=1;" parent="WIyWlLk6GJQsqaUBKTNV-1" source="nJjt4VkgYKJp9FcxVLal-13" target="nJjt4VkgYKJp9FcxVLal-19" edge="1">
                    <mxGeometry relative="1" as="geometry"/>
                </mxCell>
                <mxCell id="nJjt4VkgYKJp9FcxVLal-27" value="" style="edgeStyle=none;rounded=0;orthogonalLoop=1;jettySize=auto;html=1;" parent="WIyWlLk6GJQsqaUBKTNV-1" source="nJjt4VkgYKJp9FcxVLal-13" target="nJjt4VkgYKJp9FcxVLal-15" edge="1">
                    <mxGeometry relative="1" as="geometry"/>
                </mxCell>
                <mxCell id="nJjt4VkgYKJp9FcxVLal-29" value="Yes" style="edgeLabel;html=1;align=center;verticalAlign=middle;resizable=0;points=[];" parent="nJjt4VkgYKJp9FcxVLal-27" vertex="1" connectable="0">
                    <mxGeometry x="-0.14" y="9" relative="1" as="geometry">
                        <mxPoint x="-9" as="offset"/>
                    </mxGeometry>
                </mxCell>
                <mxCell id="nJjt4VkgYKJp9FcxVLal-13" value="5未満か?" style="rhombus;whiteSpace=wrap;html=1;shadow=0;fontFamily=Helvetica;fontSize=12;align=center;strokeWidth=1;spacing=6;spacingTop=-4;" parent="WIyWlLk6GJQsqaUBKTNV-1" vertex="1">
                    <mxGeometry x="120" y="170" width="100" height="80" as="geometry"/>
                </mxCell>
                <mxCell id="nJjt4VkgYKJp9FcxVLal-15" value="&lt;div style=&quot;font-family: &amp;#34;consolas&amp;#34; , &amp;#34;courier new&amp;#34; , monospace ; font-size: 14px ; line-height: 19px&quot;&gt;入力された数値は5未満です。&lt;br&gt;&lt;/div&gt;" style="rounded=1;whiteSpace=wrap;html=1;fontSize=12;glass=0;strokeWidth=1;shadow=0;" parent="WIyWlLk6GJQsqaUBKTNV-1" vertex="1">
                    <mxGeometry x="110" y="290" width="120" height="40" as="geometry"/>
                </mxCell>
                <mxCell id="nJjt4VkgYKJp9FcxVLal-16" value="数字(yの値)を入力" style="shape=parallelogram;perimeter=parallelogramPerimeter;whiteSpace=wrap;html=1;" parent="WIyWlLk6GJQsqaUBKTNV-1" vertex="1">
                    <mxGeometry x="100" y="90" width="140" height="40" as="geometry"/>
                </mxCell>
                <mxCell id="nJjt4VkgYKJp9FcxVLal-17" value="" style="rounded=0;html=1;jettySize=auto;orthogonalLoop=1;fontSize=11;endArrow=block;endFill=0;endSize=8;strokeWidth=1;shadow=0;labelBackgroundColor=none;edgeStyle=orthogonalEdgeStyle;" parent="WIyWlLk6GJQsqaUBKTNV-1" source="nJjt4VkgYKJp9FcxVLal-10" target="nJjt4VkgYKJp9FcxVLal-16" edge="1">
                    <mxGeometry relative="1" as="geometry">
                        <mxPoint x="170" y="60" as="sourcePoint"/>
                        <mxPoint x="170" y="170" as="targetPoint"/>
                    </mxGeometry>
                </mxCell>
                <mxCell id="nJjt4VkgYKJp9FcxVLal-32" value="" style="edgeStyle=none;rounded=0;orthogonalLoop=1;jettySize=auto;html=1;" parent="WIyWlLk6GJQsqaUBKTNV-1" source="nJjt4VkgYKJp9FcxVLal-33" edge="1">
                    <mxGeometry relative="1" as="geometry">
                        <mxPoint x="325" y="330" as="targetPoint"/>
                    </mxGeometry>
                </mxCell>
                <mxCell id="nJjt4VkgYKJp9FcxVLal-38" value="" style="edgeStyle=none;rounded=0;orthogonalLoop=1;jettySize=auto;html=1;" parent="WIyWlLk6GJQsqaUBKTNV-1" source="nJjt4VkgYKJp9FcxVLal-39" edge="1">
                    <mxGeometry relative="1" as="geometry">
                        <mxPoint x="460" y="210" as="targetPoint"/>
                    </mxGeometry>
                </mxCell>
                <mxCell id="nJjt4VkgYKJp9FcxVLal-19" value="5以上10未満か?" style="rhombus;whiteSpace=wrap;html=1;" parent="WIyWlLk6GJQsqaUBKTNV-1" vertex="1">
                    <mxGeometry x="270" y="170" width="110" height="80" as="geometry"/>
                </mxCell>
                <mxCell id="nJjt4VkgYKJp9FcxVLal-33" value="&lt;div style=&quot;font-family: &amp;#34;consolas&amp;#34; , &amp;#34;courier new&amp;#34; , monospace ; font-size: 14px ; line-height: 19px&quot;&gt;&lt;span&gt;入力された値は5以上10未満&lt;/span&gt;&lt;/div&gt;" style="rounded=1;whiteSpace=wrap;html=1;" parent="WIyWlLk6GJQsqaUBKTNV-1" vertex="1">
                    <mxGeometry x="230" y="290" width="186" height="40" as="geometry"/>
                </mxCell>
                <mxCell id="nJjt4VkgYKJp9FcxVLal-34" value="" style="edgeStyle=none;rounded=0;orthogonalLoop=1;jettySize=auto;html=1;" parent="WIyWlLk6GJQsqaUBKTNV-1" source="nJjt4VkgYKJp9FcxVLal-19" target="nJjt4VkgYKJp9FcxVLal-33" edge="1">
                    <mxGeometry relative="1" as="geometry">
                        <mxPoint x="325" y="250" as="sourcePoint"/>
                        <mxPoint x="325" y="330" as="targetPoint"/>
                    </mxGeometry>
                </mxCell>
                <mxCell id="nJjt4VkgYKJp9FcxVLal-36" value="Yes" style="edgeLabel;html=1;align=center;verticalAlign=middle;resizable=0;points=[];" parent="nJjt4VkgYKJp9FcxVLal-34" vertex="1" connectable="0">
                    <mxGeometry x="-0.14" y="11" relative="1" as="geometry">
                        <mxPoint x="-11" as="offset"/>
                    </mxGeometry>
                </mxCell>
                <mxCell id="nJjt4VkgYKJp9FcxVLal-39" value="&lt;div style=&quot;font-family: &amp;#34;consolas&amp;#34; , &amp;#34;courier new&amp;#34; , monospace ; font-size: 14px ; line-height: 19px&quot;&gt;&lt;span&gt;入力された値は10以上です。&lt;/span&gt;&lt;/div&gt;" style="rounded=1;whiteSpace=wrap;html=1;" parent="WIyWlLk6GJQsqaUBKTNV-1" vertex="1">
                    <mxGeometry x="430" y="190" width="100" height="40" as="geometry"/>
                </mxCell>
                <mxCell id="nJjt4VkgYKJp9FcxVLal-40" value="" style="edgeStyle=none;rounded=0;orthogonalLoop=1;jettySize=auto;html=1;" parent="WIyWlLk6GJQsqaUBKTNV-1" source="nJjt4VkgYKJp9FcxVLal-19" target="nJjt4VkgYKJp9FcxVLal-39" edge="1">
                    <mxGeometry relative="1" as="geometry">
                        <mxPoint x="380" y="210" as="sourcePoint"/>
                        <mxPoint x="460" y="210" as="targetPoint"/>
                    </mxGeometry>
                </mxCell>
                <mxCell id="nJjt4VkgYKJp9FcxVLal-45" value="No" style="edgeLabel;html=1;align=center;verticalAlign=middle;resizable=0;points=[];" parent="nJjt4VkgYKJp9FcxVLal-40" vertex="1" connectable="0">
                    <mxGeometry x="-0.416" y="7" relative="1" as="geometry">
                        <mxPoint x="5" y="7" as="offset"/>
                    </mxGeometry>
                </mxCell>
            </root>
        </mxGraphModel>
    </diagram>
</mxfile>